<svg xmlns="http://www.w3.org/2000/svg" width="150" height="61" viewBox="0 0 150 61" fill="none">
  <circle cx="2.08346" cy="10.3054" r="2.08346" fill="#FFE2AA"/>
  <circle cx="83.1018" cy="10.3054" r="2.08346" fill="#FFE2AA"/>
  <circle cx="2.08346" cy="26.5092" r="2.08346" fill="#FFE2AA"/>
  <circle cx="83.1018" cy="26.5092" r="2.08346" fill="#FFE2AA"/>
  <circle cx="2.08346" cy="42.7129" r="2.08346" fill="#FFE2AA"/>
  <circle cx="83.1018" cy="42.7129" r="2.08346" fill="#FFE2AA"/>
  <circle cx="2.08346" cy="58.9165" r="2.08346" fill="#FFE2AA"/>
  <circle cx="83.1018" cy="58.9165" r="2.08346" fill="#FFE2AA"/>
  <circle cx="18.2871" cy="10.3054" r="2.08346" fill="#FFE2AA"/>
  <circle cx="99.3055" cy="10.3054" r="2.08346" fill="#FFE2AA"/>
  <circle cx="18.2871" cy="26.5092" r="2.08346" fill="#FFE2AA"/>
  <circle cx="99.3055" cy="26.5092" r="2.08346" fill="#FFE2AA"/>
  <circle cx="18.2871" cy="42.7129" r="2.08346" fill="#FFE2AA"/>
  <circle cx="99.3055" cy="42.7129" r="2.08346" fill="#FFE2AA"/>
  <circle cx="18.2871" cy="58.9165" r="2.08346" fill="#FFE2AA"/>
  <circle cx="99.3055" cy="58.9165" r="2.08346" fill="#FFE2AA"/>
  <circle cx="34.4908" cy="10.3054" r="2.08346" fill="#FFE2AA"/>
  <circle cx="115.509" cy="10.3054" r="2.08346" fill="#FFE2AA"/>
  <circle cx="34.4908" cy="26.5092" r="2.08346" fill="#FFE2AA"/>
  <circle cx="115.509" cy="26.5092" r="2.08346" fill="#FFE2AA"/>
  <circle cx="34.4908" cy="42.7129" r="2.08346" fill="#FFE2AA"/>
  <circle cx="115.509" cy="42.7129" r="2.08346" fill="#FFE2AA"/>
  <circle cx="34.4908" cy="58.9165" r="2.08346" fill="#FFE2AA"/>
  <circle cx="115.509" cy="58.9165" r="2.08346" fill="#FFE2AA"/>
  <circle cx="50.6945" cy="10.3054" r="2.08346" fill="#FFE2AA"/>
  <circle cx="131.713" cy="10.3054" r="2.08346" fill="#FFE2AA"/>
  <circle cx="50.6945" cy="26.5092" r="2.08346" fill="#FFE2AA"/>
  <circle cx="131.713" cy="26.5092" r="2.08346" fill="#FFE2AA"/>
  <circle cx="50.6945" cy="42.7129" r="2.08346" fill="#FFE2AA"/>
  <circle cx="131.713" cy="42.7129" r="2.08346" fill="#FFE2AA"/>
  <circle cx="50.6945" cy="58.9165" r="2.08346" fill="#FFE2AA"/>
  <circle cx="131.713" cy="58.9165" r="2.08346" fill="#FFE2AA"/>
  <circle cx="66.8981" cy="10.3054" r="2.08346" fill="#FFE2AA"/>
  <circle cx="147.916" cy="10.3054" r="2.08346" fill="#FFE2AA"/>
  <circle cx="66.8981" cy="26.5092" r="2.08346" fill="#FFE2AA"/>
  <circle cx="147.916" cy="26.5092" r="2.08346" fill="#FFE2AA"/>
  <circle cx="66.8981" cy="42.7129" r="2.08346" fill="#FFE2AA"/>
  <circle cx="147.916" cy="42.7129" r="2.08346" fill="#FFE2AA"/>
  <circle cx="66.8981" cy="58.9165" r="2.08346" fill="#FFE2AA"/>
  <circle cx="147.916" cy="58.9165" r="2.08346" fill="#FFE2AA"/>
</svg>